<svg width="35" height="35" viewBox="0 0 35 35" fill="none" xmlns="http://www.w3.org/2000/svg">
<path d="M17.4991 0C19.4477 0 21.3526 0.59092 22.9728 1.69804C24.593 2.80515 25.8558 4.37874 26.6015 6.2198C27.3472 8.06087 27.5423 10.0867 27.1622 12.0412C26.782 13.9957 25.8437 15.7909 24.4658 17.2C23.0879 18.6091 21.3324 19.5687 19.4212 19.9575C17.51 20.3463 15.529 20.1467 13.7288 19.3841C11.9285 18.6215 10.3897 17.3301 9.30715 15.6732C8.22456 14.0163 7.64673 12.0683 7.64673 10.0755C7.64673 7.40335 8.68474 4.84059 10.5324 2.95106C12.3801 1.06153 14.8861 0 17.4991 0Z" fill="#595959"/>
<path d="M0 31.6193C0.0379803 28.8632 1.20625 26.2322 3.25207 24.2955C5.29788 22.3589 8.05673 21.2723 10.9318 21.2709H24.0682C26.9433 21.2723 29.7021 22.3589 31.7479 24.2955C33.7937 26.2322 34.962 28.8632 35 31.6193C30.1983 35.7678 23.7118 34.9309 17.248 34.9309C10.7843 34.9309 4.80174 35.7678 0 31.6193Z" fill="#595959"/>
</svg>
