<svg width="48" height="45" viewBox="0 0 48 45" fill="none" xmlns="http://www.w3.org/2000/svg">
<path d="M36.5057 45C39.3295 45 42.0376 43.8782 44.0342 41.8815C46.0309 39.8848 47.1527 37.1768 47.1527 34.353C47.1527 31.5293 46.0309 28.8212 44.0342 26.8245C42.0376 24.8278 39.3295 23.7061 36.5057 23.7061C33.682 23.7061 30.9739 24.8278 28.9772 26.8245C26.9805 28.8212 25.8588 31.5293 25.8588 34.353C25.8588 37.1768 26.9805 39.8848 28.9772 41.8815C30.9739 43.8782 33.682 45 36.5057 45ZM38.0267 29.79V32.832H41.0687C41.4721 32.832 41.859 32.9923 42.1442 33.2775C42.4294 33.5627 42.5897 33.9496 42.5897 34.353C42.5897 34.7564 42.4294 35.1433 42.1442 35.4285C41.859 35.7138 41.4721 35.874 41.0687 35.874H38.0267V38.916C38.0267 39.3194 37.8665 39.7062 37.5812 39.9915C37.296 40.2767 36.9091 40.437 36.5057 40.437C36.1023 40.437 35.7155 40.2767 35.4302 39.9915C35.145 39.7062 34.9847 39.3194 34.9847 38.916V35.874H31.9427C31.5393 35.874 31.1525 35.7138 30.8672 35.4285C30.582 35.1433 30.4217 34.7564 30.4217 34.353C30.4217 33.9496 30.582 33.5627 30.8672 33.2775C31.1525 32.9923 31.5393 32.832 31.9427 32.832H34.9847V29.79C34.9847 29.3866 35.145 28.9998 35.4302 28.7145C35.7155 28.4293 36.1023 28.269 36.5057 28.269C36.9091 28.269 37.296 28.4293 37.5812 28.7145C37.8665 28.9998 38.0267 29.3866 38.0267 29.79Z" fill="#115B57"/>
<path d="M24.9675 0.890652C24.397 0.320368 23.6234 0 22.8168 0C22.0102 0 21.2366 0.320368 20.6661 0.890652L0.446051 21.1077C0.304636 21.2491 0.192459 21.417 0.115925 21.6018C0.0393914 21.7865 0 21.9846 0 22.1846C0 22.3845 0.0393914 22.5826 0.115925 22.7673C0.192459 22.9521 0.304636 23.12 0.446051 23.2614C0.731653 23.547 1.11901 23.7075 1.52291 23.7075C1.72291 23.7075 1.92094 23.6681 2.10571 23.5915C2.29048 23.515 2.45836 23.4028 2.59978 23.2614L22.8168 3.04134L43.0338 23.2614C43.3194 23.547 43.7068 23.7075 44.1107 23.7075C44.5146 23.7075 44.902 23.547 45.1876 23.2614C45.4732 22.9758 45.6336 22.5885 45.6336 22.1846C45.6336 21.7807 45.4732 21.3933 45.1876 21.1077L38.0267 13.9499V3.93264C38.0267 3.52925 37.8665 3.14238 37.5813 2.85713C37.296 2.57189 36.9091 2.41165 36.5057 2.41165H33.4638C33.0604 2.41165 32.6735 2.57189 32.3883 2.85713C32.103 3.14238 31.9428 3.52925 31.9428 3.93264V7.86593L24.9675 0.890652Z" fill="#115B57"/>
<path d="M22.8169 6.3457L37.1507 20.6795C34.6198 20.56 32.1053 21.1452 29.8873 22.3701C27.6692 23.5949 25.8347 25.4113 24.5879 27.6171C23.341 29.8228 22.7309 32.3314 22.8253 34.8634C22.9197 37.3954 23.715 39.8515 25.1227 41.9582H9.12792C7.91774 41.9582 6.75713 41.4775 5.90141 40.6218C5.04568 39.766 4.56494 38.6054 4.56494 37.3953V24.5976L22.8169 6.3457Z" fill="#115B57"/>
</svg>
