<svg width="48" height="45" viewBox="0 0 48 45" fill="none" xmlns="http://www.w3.org/2000/svg">
<g opacity="0.2">
<path d="M22.9857 17.4375C22.9857 19.2277 22.2406 20.9446 20.9142 22.2105C19.5879 23.4763 17.7889 24.1875 15.9132 24.1875C14.0375 24.1875 12.2385 23.4763 10.9122 22.2105C9.58583 20.9446 8.8407 19.2277 8.8407 17.4375C8.8407 15.6473 9.58583 13.9304 10.9122 12.6645C12.2385 11.3987 14.0375 10.6875 15.9132 10.6875C17.7889 10.6875 19.5879 11.3987 20.9142 12.6645C22.2406 13.9304 22.9857 15.6473 22.9857 17.4375Z" fill="#22BFE2"/>
<path fill-rule="evenodd" clip-rule="evenodd" d="M15.9132 19.6875C16.5384 19.6875 17.1381 19.4504 17.5802 19.0285C18.0223 18.6065 18.2707 18.0342 18.2707 17.4375C18.2707 16.8408 18.0223 16.2685 17.5802 15.8465C17.1381 15.4246 16.5384 15.1875 15.9132 15.1875C15.288 15.1875 14.6883 15.4246 14.2462 15.8465C13.8041 16.2685 13.5557 16.8408 13.5557 17.4375C13.5557 18.0342 13.8041 18.6065 14.2462 19.0285C14.6883 19.4504 15.288 19.6875 15.9132 19.6875ZM15.9132 24.1875C16.842 24.1875 17.7617 24.0129 18.6197 23.6737C19.4778 23.3345 20.2575 22.8373 20.9142 22.2105C21.571 21.5837 22.0919 20.8396 22.4473 20.0206C22.8028 19.2017 22.9857 18.3239 22.9857 17.4375C22.9857 16.5511 22.8028 15.6733 22.4473 14.8544C22.0919 14.0354 21.571 13.2913 20.9142 12.6645C20.2575 12.0377 19.4778 11.5405 18.6197 11.2013C17.7617 10.8621 16.842 10.6875 15.9132 10.6875C14.0375 10.6875 12.2385 11.3987 10.9122 12.6645C9.58583 13.9304 8.8407 15.6473 8.8407 17.4375C8.8407 19.2277 9.58583 20.9446 10.9122 22.2105C12.2385 23.4763 14.0375 24.1875 15.9132 24.1875Z" fill="#22BFE2"/>
<path fill-rule="evenodd" clip-rule="evenodd" d="M16.031 25.875C15.0932 25.875 14.1937 26.2306 13.5305 26.8635C12.8674 27.4964 12.4948 28.3549 12.4948 29.25V32.625C12.4948 33.2217 12.2464 33.794 11.8043 34.216C11.3622 34.6379 10.7625 34.875 10.1373 34.875C9.51204 34.875 8.9124 34.6379 8.47028 34.216C8.02816 33.794 7.77979 33.2217 7.77979 32.625V29.25C7.77979 27.1614 8.64911 25.1584 10.1965 23.6815C11.7439 22.2047 13.8427 21.375 16.031 21.375C18.2194 21.375 20.3181 22.2047 21.8655 23.6815C23.413 25.1584 24.2823 27.1614 24.2823 29.25V30.375C24.2823 30.9717 24.0339 31.544 23.5918 31.966C23.1497 32.3879 22.55 32.625 21.9248 32.625C21.2995 32.625 20.6999 32.3879 20.2578 31.966C19.8157 31.544 19.5673 30.9717 19.5673 30.375V29.25C19.5673 28.3549 19.1947 27.4964 18.5315 26.8635C17.8684 26.2306 16.9689 25.875 16.031 25.875Z" fill="#22BFE2"/>
<path d="M30.0581 17.4375C30.0581 19.2277 30.8032 20.9446 32.1296 22.2105C33.4559 23.4763 35.2549 24.1875 37.1306 24.1875C39.0063 24.1875 40.8053 23.4763 42.1316 22.2105C43.458 20.9446 44.2031 19.2277 44.2031 17.4375C44.2031 15.6473 43.458 13.9304 42.1316 12.6645C40.8053 11.3987 39.0063 10.6875 37.1306 10.6875C35.2549 10.6875 33.4559 11.3987 32.1296 12.6645C30.8032 13.9304 30.0581 15.6473 30.0581 17.4375Z" fill="#22BFE2"/>
<path fill-rule="evenodd" clip-rule="evenodd" d="M37.1306 19.6875C36.5054 19.6875 35.9057 19.4504 35.4636 19.0285C35.0215 18.6065 34.7731 18.0342 34.7731 17.4375C34.7731 16.8408 35.0215 16.2685 35.4636 15.8465C35.9057 15.4246 36.5054 15.1875 37.1306 15.1875C37.7559 15.1875 38.3555 15.4246 38.7976 15.8465C39.2397 16.2685 39.4881 16.8408 39.4881 17.4375C39.4881 18.0342 39.2397 18.6065 38.7976 19.0285C38.3555 19.4504 37.7559 19.6875 37.1306 19.6875ZM37.1306 24.1875C36.2018 24.1875 35.2822 24.0129 34.4241 23.6737C33.566 23.3345 32.7863 22.8373 32.1296 22.2105C31.4728 21.5837 30.9519 20.8396 30.5965 20.0206C30.241 19.2017 30.0581 18.3239 30.0581 17.4375C30.0581 16.5511 30.241 15.6733 30.5965 14.8544C30.9519 14.0354 31.4728 13.2913 32.1296 12.6645C32.7863 12.0377 33.566 11.5405 34.4241 11.2013C35.2822 10.8621 36.2018 10.6875 37.1306 10.6875C39.0063 10.6875 40.8053 11.3987 42.1316 12.6645C43.458 13.9304 44.2031 15.6473 44.2031 17.4375C44.2031 19.2277 43.458 20.9446 42.1316 22.2105C40.8053 23.4763 39.0063 24.1875 37.1306 24.1875Z" fill="#22BFE2"/>
<path fill-rule="evenodd" clip-rule="evenodd" d="M37.0127 25.875C37.9506 25.875 38.8501 26.2306 39.5132 26.8635C40.1764 27.4964 40.549 28.3549 40.549 29.25V32.625C40.549 33.2217 40.7974 33.794 41.2395 34.216C41.6816 34.6379 42.2812 34.875 42.9065 34.875C43.5317 34.875 44.1314 34.6379 44.5735 34.216C45.0156 33.794 45.264 33.2217 45.264 32.625V29.25C45.264 27.1614 44.3946 25.1584 42.8472 23.6815C41.2998 22.2047 39.2011 21.375 37.0127 21.375C34.8244 21.375 32.7256 22.2047 31.1782 23.6815C29.6308 25.1584 28.7615 27.1614 28.7615 29.25V30.375C28.7615 30.9717 29.0099 31.544 29.452 31.966C29.8941 32.3879 30.4937 32.625 31.119 32.625C31.7442 32.625 32.3439 32.3879 32.786 31.966C33.2281 31.544 33.4765 30.9717 33.4765 30.375V29.25C33.4765 28.3549 33.849 27.4964 34.5122 26.8635C35.1754 26.2306 36.0749 25.875 37.0127 25.875Z" fill="#22BFE2"/>
<path fill-rule="evenodd" clip-rule="evenodd" d="M26.6398 32.0625C25.7019 32.0625 24.8025 32.4181 24.1393 33.051C23.4761 33.6839 23.1035 34.5424 23.1035 35.4375V38.8125C23.1035 39.4092 22.8552 39.9815 22.4131 40.4035C21.9709 40.8254 21.3713 41.0625 20.746 41.0625C20.1208 41.0625 19.5212 40.8254 19.079 40.4035C18.6369 39.9815 18.3885 39.4092 18.3885 38.8125V35.4375C18.3885 33.3489 19.2579 31.3459 20.8053 29.869C22.3527 28.3922 24.4514 27.5625 26.6398 27.5625C28.8282 27.5625 30.9269 28.3922 32.4743 29.869C34.0217 31.3459 34.8911 33.3489 34.8911 35.4375V38.8125C34.8911 39.4092 34.6427 39.9815 34.2006 40.4035C33.7584 40.8254 33.1588 41.0625 32.5336 41.0625C31.9083 41.0625 31.3087 40.8254 30.8665 40.4035C30.4244 39.9815 30.1761 39.4092 30.1761 38.8125V35.4375C30.1761 34.5424 29.8035 33.6839 29.1403 33.051C28.4771 32.4181 27.5777 32.0625 26.6398 32.0625Z" fill="#22BFE2"/>
<path d="M33.5945 23.625C33.5945 25.4152 32.8493 27.1321 31.523 28.398C30.1966 29.6638 28.3977 30.375 26.522 30.375C24.6462 30.375 22.8473 29.6638 21.5209 28.398C20.1946 27.1321 19.4495 25.4152 19.4495 23.625C19.4495 21.8348 20.1946 20.1179 21.5209 18.852C22.8473 17.5862 24.6462 16.875 26.522 16.875C28.3977 16.875 30.1966 17.5862 31.523 18.852C32.8493 20.1179 33.5945 21.8348 33.5945 23.625Z" fill="#22BFE2"/>
<path fill-rule="evenodd" clip-rule="evenodd" d="M26.522 25.875C27.1472 25.875 27.7468 25.6379 28.189 25.216C28.6311 24.794 28.8795 24.2217 28.8795 23.625C28.8795 23.0283 28.6311 22.456 28.189 22.034C27.7468 21.6121 27.1472 21.375 26.522 21.375C25.8967 21.375 25.2971 21.6121 24.855 22.034C24.4128 22.456 24.1645 23.0283 24.1645 23.625C24.1645 24.2217 24.4128 24.794 24.855 25.216C25.2971 25.6379 25.8967 25.875 26.522 25.875ZM26.522 30.375C28.3977 30.375 30.1966 29.6638 31.523 28.398C32.8493 27.1321 33.5945 25.4152 33.5945 23.625C33.5945 21.8348 32.8493 20.1179 31.523 18.852C30.1966 17.5862 28.3977 16.875 26.522 16.875C24.6462 16.875 22.8473 17.5862 21.5209 18.852C20.1946 20.1179 19.4495 21.8348 19.4495 23.625C19.4495 25.4152 20.1946 27.1321 21.5209 28.398C22.8473 29.6638 24.6462 30.375 26.522 30.375Z" fill="#22BFE2"/>
<path d="M10.0194 25.875H21.8069V34.875H10.0194V25.875ZM31.2369 25.875H43.0244V34.875H31.2369V25.875Z" fill="#22BFE2"/>
<path d="M21.8069 30.375H31.2369L32.4157 41.0625H20.6282L21.8069 30.375Z" fill="#22BFE2"/>
</g>
<path fill-rule="evenodd" clip-rule="evenodd" d="M11.7875 20.25C13.038 20.25 14.2372 19.7759 15.1215 18.932C16.0057 18.0881 16.5025 16.9435 16.5025 15.75C16.5025 14.5565 16.0057 13.4119 15.1215 12.568C14.2372 11.7241 13.038 11.25 11.7875 11.25C10.537 11.25 9.33769 11.7241 8.45346 12.568C7.56922 13.4119 7.07247 14.5565 7.07247 15.75C7.07247 16.9435 7.56922 18.0881 8.45346 18.932C9.33769 19.7759 10.537 20.25 11.7875 20.25ZM11.7875 22.5C12.7162 22.5 13.6359 22.3254 14.494 21.9862C15.3521 21.647 16.1317 21.1498 16.7885 20.523C17.4452 19.8962 17.9662 19.1521 18.3216 18.3331C18.677 17.5142 18.86 16.6364 18.86 15.75C18.86 14.8636 18.677 13.9858 18.3216 13.1669C17.9662 12.3479 17.4452 11.6038 16.7885 10.977C16.1317 10.3502 15.3521 9.85303 14.494 9.51381C13.6359 9.17459 12.7162 9 11.7875 9C9.91172 9 8.1128 9.71116 6.78645 10.977C5.4601 12.2429 4.71497 13.9598 4.71497 15.75C4.71497 17.5402 5.4601 19.2571 6.78645 20.523C8.1128 21.7888 9.91172 22.5 11.7875 22.5Z" fill="#22BFE2"/>
<path fill-rule="evenodd" clip-rule="evenodd" d="M9.08581 20.0158C9.19558 20.1203 9.28268 20.2444 9.3421 20.3811C9.40152 20.5178 9.43211 20.6643 9.43211 20.8123C9.43211 20.9602 9.40152 21.1068 9.3421 21.2434C9.28268 21.3801 9.19558 21.5043 9.08581 21.6088L8.28898 22.367C6.7555 23.831 5.89396 25.8162 5.89375 27.8863V32.0623C5.89375 32.3606 5.76957 32.6468 5.54851 32.8578C5.32745 33.0687 5.02763 33.1873 4.715 33.1873C4.40238 33.1873 4.10256 33.0687 3.8815 32.8578C3.66044 32.6468 3.53625 32.3606 3.53625 32.0623V27.8863C3.53659 25.2195 4.6466 22.6621 6.62222 20.7763L7.4167 20.0158C7.5262 19.911 7.65627 19.8279 7.79948 19.7712C7.94269 19.7144 8.09621 19.6853 8.25126 19.6853C8.4063 19.6853 8.55982 19.7144 8.70303 19.7712C8.84624 19.8279 8.97631 19.911 9.08581 20.0158ZM36.8855 19.3408C36.7757 19.4453 36.6886 19.5694 36.6292 19.7061C36.5697 19.8428 36.5391 19.9893 36.5391 20.1373C36.5391 20.2852 36.5697 20.4318 36.6292 20.5684C36.6886 20.7051 36.7757 20.8293 36.8855 20.9338L37.6823 21.692C38.4417 22.4168 39.0441 23.2773 39.455 24.2243C39.866 25.1713 40.0775 26.1863 40.0775 27.2113V32.0623C40.0775 32.3606 40.2017 32.6468 40.4228 32.8578C40.6438 33.0687 40.9436 33.1873 41.2563 33.1873C41.5689 33.1873 41.8687 33.0687 42.0898 32.8578C42.3108 32.6468 42.435 32.3606 42.435 32.0623V27.2113C42.4347 24.5445 41.3247 21.9871 39.349 20.1013L38.5546 19.3408C38.4451 19.236 38.315 19.1529 38.1718 19.0962C38.0286 19.0394 37.8751 19.0103 37.72 19.0103C37.565 19.0103 37.4114 19.0394 37.2682 19.0962C37.125 19.1529 36.9949 19.236 36.8855 19.3408Z" fill="#22BFE2"/>
<path fill-rule="evenodd" clip-rule="evenodd" d="M33.005 20.25C31.7545 20.25 30.5552 19.7759 29.671 18.932C28.7868 18.0881 28.29 16.9435 28.29 15.75C28.29 14.5565 28.7868 13.4119 29.671 12.568C30.5552 11.7241 31.7545 11.25 33.005 11.25C34.2555 11.25 35.4548 11.7241 36.339 12.568C37.2233 13.4119 37.72 14.5565 37.72 15.75C37.72 16.9435 37.2233 18.0881 36.339 18.932C35.4548 19.7759 34.2555 20.25 33.005 20.25ZM33.005 22.5C32.0762 22.5 31.1566 22.3254 30.2985 21.9862C29.4404 21.647 28.6607 21.1498 28.004 20.523C27.3473 19.8962 26.8263 19.1521 26.4709 18.3331C26.1155 17.5142 25.9325 16.6364 25.9325 15.75C25.9325 14.8636 26.1155 13.9858 26.4709 13.1669C26.8263 12.3479 27.3473 11.6038 28.004 10.977C28.6607 10.3502 29.4404 9.85303 30.2985 9.51381C31.1566 9.17459 32.0762 9 33.005 9C34.8808 9 36.6797 9.71116 38.006 10.977C39.3324 12.2429 40.0775 13.9598 40.0775 15.75C40.0775 17.5402 39.3324 19.2571 38.006 20.523C36.6797 21.7888 34.8808 22.5 33.005 22.5ZM22.3963 29.8125C20.8332 29.8125 19.3341 30.4051 18.2288 31.46C17.1235 32.5149 16.5025 33.9457 16.5025 35.4375V38.3625C16.5025 38.6609 16.3783 38.947 16.1573 39.158C15.9362 39.369 15.6364 39.4875 15.3238 39.4875C15.0111 39.4875 14.7113 39.369 14.4903 39.158C14.2692 38.947 14.145 38.6609 14.145 38.3625V35.4375C14.145 33.3489 15.0143 31.3459 16.5618 29.869C18.1092 28.3922 20.2079 27.5625 22.3963 27.5625C24.5846 27.5625 26.6834 28.3922 28.2308 29.869C29.7782 31.3459 30.6475 33.3489 30.6475 35.4375V38.3625C30.6475 38.6609 30.5233 38.947 30.3023 39.158C30.0812 39.369 29.7814 39.4875 29.4688 39.4875C29.1561 39.4875 28.8563 39.369 28.6353 39.158C28.4142 38.947 28.29 38.6609 28.29 38.3625V35.4375C28.29 34.6988 28.1376 33.9674 27.8414 33.2849C27.5452 32.6024 27.1111 31.9824 26.5638 31.46C26.0165 30.9377 25.3668 30.5234 24.6517 30.2407C23.9366 29.958 23.1702 29.8125 22.3963 29.8125Z" fill="#22BFE2"/>
<path fill-rule="evenodd" clip-rule="evenodd" d="M22.3962 26.4375C23.6467 26.4375 24.846 25.9634 25.7302 25.1195C26.6145 24.2756 27.1112 23.131 27.1112 21.9375C27.1112 20.744 26.6145 19.5994 25.7302 18.7555C24.846 17.9116 23.6467 17.4375 22.3962 17.4375C21.1457 17.4375 19.9465 17.9116 19.0622 18.7555C18.178 19.5994 17.6812 20.744 17.6812 21.9375C17.6812 23.131 18.178 24.2756 19.0622 25.1195C19.9465 25.9634 21.1457 26.4375 22.3962 26.4375ZM22.3962 28.6875C24.272 28.6875 26.0709 27.9763 27.3972 26.7105C28.7236 25.4446 29.4687 23.7277 29.4687 21.9375C29.4687 20.1473 28.7236 18.4304 27.3972 17.1645C26.0709 15.8987 24.272 15.1875 22.3962 15.1875C20.5205 15.1875 18.7216 15.8987 17.3952 17.1645C16.0689 18.4304 15.3237 20.1473 15.3237 21.9375C15.3237 23.7277 16.0689 25.4446 17.3952 26.7105C18.7216 27.9763 20.5205 28.6875 22.3962 28.6875Z" fill="#22BFE2"/>
</svg>
