<svg width="20" height="20" viewBox="0 0 20 20" fill="none" xmlns="http://www.w3.org/2000/svg">
<path d="M17.084 2.85796C16.6516 2.85744 16.2245 2.94012 15.8343 3.09991V2.50083C15.8346 1.90501 15.5866 1.32871 15.1351 0.875759C14.6836 0.422813 14.0582 0.123017 13.3717 0.0303956C12.6851 -0.0622259 11.9826 0.0584182 11.3906 0.370587C10.7987 0.682756 10.3562 1.16592 10.143 1.73301C9.69896 1.52652 9.19995 1.42248 8.69487 1.43107C8.1898 1.43966 7.696 1.5606 7.26185 1.78203C6.8277 2.00346 6.46809 2.31779 6.21827 2.69421C5.96846 3.07064 5.83699 3.49625 5.83677 3.92934V9.64335L5.43895 9.09606C5.05254 8.52438 4.41787 8.1071 3.67365 7.93541C2.92943 7.76373 2.1362 7.85162 1.46734 8.17986C0.79848 8.5081 0.308395 9.05 0.104209 9.68711C-0.099978 10.3242 -0.00165959 11.0047 0.377673 11.5799C2.04394 14.5949 3.39049 16.7332 4.93074 18.0697C6.48661 19.4232 8.25285 20 10.8356 20C13.2653 19.9976 15.5947 19.1691 17.3128 17.6962C19.0308 16.2233 19.9972 14.2263 20 12.1432V5.35784C20 4.69483 19.6928 4.05898 19.1459 3.59016C18.5991 3.12134 17.8574 2.85796 17.084 2.85796ZM18.3337 12.1432C18.3315 13.8475 17.5408 15.4815 16.1351 16.6866C14.7294 17.8917 12.8235 18.5696 10.8356 18.5715C8.71315 18.5715 7.34578 18.1358 6.11482 17.0671C4.73703 15.8698 3.46859 13.8396 1.86898 10.9451C1.85961 10.9274 1.84918 10.9101 1.83774 10.8933C1.67202 10.6471 1.62714 10.3547 1.71297 10.0801C1.79881 9.80563 2.00833 9.5716 2.29544 9.42952C2.58255 9.28745 2.92373 9.24897 3.24393 9.32256C3.56413 9.39615 3.83712 9.57577 4.00284 9.82191C4.00708 9.82907 4.01195 9.83593 4.01742 9.84245L5.96174 12.5209C6.05725 12.653 6.20043 12.7548 6.36956 12.8109C6.53868 12.8669 6.72452 12.8741 6.89885 12.8314C7.07319 12.7887 7.22651 12.6984 7.33555 12.5742C7.44458 12.45 7.50339 12.2987 7.50303 12.1432V3.92934C7.50303 3.64519 7.63469 3.37268 7.86906 3.17176C8.10342 2.97084 8.42129 2.85796 8.75273 2.85796C9.08417 2.85796 9.40203 2.97084 9.6364 3.17176C9.87076 3.37268 10.0024 3.64519 10.0024 3.92934V9.28623C10.0024 9.47566 10.0902 9.65733 10.2464 9.79128C10.4027 9.92523 10.6146 10.0005 10.8356 10.0005C11.0565 10.0005 11.2684 9.92523 11.4247 9.79128C11.5809 9.65733 11.6687 9.47566 11.6687 9.28623V2.50083C11.6687 2.21669 11.8004 1.94418 12.0347 1.74326C12.2691 1.54233 12.5869 1.42946 12.9184 1.42946C13.2498 1.42946 13.5677 1.54233 13.8021 1.74326C14.0364 1.94418 14.1681 2.21669 14.1681 2.50083V9.28623C14.1681 9.47566 14.2559 9.65733 14.4121 9.79128C14.5683 9.92523 14.7803 10.0005 15.0012 10.0005C15.2222 10.0005 15.4341 9.92523 15.5903 9.79128C15.7466 9.65733 15.8343 9.47566 15.8343 9.28623V5.35784C15.8343 5.07369 15.966 4.80119 16.2004 4.60026C16.4347 4.39934 16.7526 4.28646 17.084 4.28646C17.4155 4.28646 17.7333 4.39934 17.9677 4.60026C18.2021 4.80119 18.3337 5.07369 18.3337 5.35784V12.1432Z" fill="black"/>
</svg>
