<svg width="20" height="20" viewBox="0 0 20 20" fill="none" xmlns="http://www.w3.org/2000/svg">
<path d="M11.7241 20C13.3609 20 14.961 19.4135 16.322 18.3147C17.6829 17.2159 18.7437 15.6541 19.37 13.8268C19.9964 11.9996 20.1603 9.98891 19.841 8.0491C19.5217 6.10929 18.7335 4.32746 17.5761 2.92894C16.4187 1.53041 14.944 0.578004 13.3387 0.192152C11.7333 -0.1937 10.0693 0.00433286 8.5571 0.761209C7.04489 1.51809 5.75237 2.79981 4.84301 4.4443C3.93365 6.08879 3.44828 8.02219 3.44828 10V15.1667L0.965517 12.1667L0 13.3333L4.13793 18.3333L8.27586 13.3333L7.31034 12.1667L4.82759 15.1667V10C4.82759 8.35182 5.23206 6.74066 5.98986 5.37025C6.74767 3.99984 7.82476 2.93174 9.08494 2.30101C10.3451 1.67028 11.7318 1.50525 13.0696 1.82679C14.4074 2.14834 15.6362 2.94201 16.6007 4.10745C17.5652 5.27288 18.2221 6.75774 18.4882 8.37425C18.7543 9.99076 18.6177 11.6663 18.0957 13.189C17.5737 14.7117 16.6898 16.0132 15.5557 16.9289C14.4215 17.8446 13.0881 18.3333 11.7241 18.3333V20Z" fill="black"/>
</svg>
