<svg width="20" height="20" viewBox="0 0 20 20" fill="none" xmlns="http://www.w3.org/2000/svg">
<path d="M20 4.44445V17.7778C20 18.3889 19.7822 18.9122 19.3467 19.3478C18.9111 19.7833 18.3881 20.0007 17.7778 20H2.22222C1.61111 20 1.08778 19.7822 0.652224 19.3467C0.216668 18.9111 -0.000738854 18.3881 1.88644e-06 17.7778V2.22222C1.88644e-06 1.61111 0.21778 1.08778 0.653335 0.652224C1.08889 0.216668 1.61185 -0.000738854 2.22222 1.88644e-06H15.5556L20 4.44445ZM10 16.6667C10.9259 16.6667 11.713 16.3426 12.3611 15.6944C13.0093 15.0463 13.3333 14.2593 13.3333 13.3333C13.3333 12.4074 13.0093 11.6204 12.3611 10.9722C11.713 10.3241 10.9259 10 10 10C9.07408 10 8.28704 10.3241 7.63889 10.9722C6.99074 11.6204 6.66667 12.4074 6.66667 13.3333C6.66667 14.2593 6.99074 15.0463 7.63889 15.6944C8.28704 16.3426 9.07408 16.6667 10 16.6667ZM3.33333 7.77778H13.3333V3.33333H3.33333V7.77778Z" fill="black"/>
</svg>
